<?xml version="1.0" encoding="utf-8"?>
<!-- Generator: Adobe Illustrator 26.0.2, SVG Export Plug-In . SVG Version: 6.00 Build 0)  -->
<svg version="1.1" id="Layer_1" xmlns="http://www.w3.org/2000/svg" xmlns:xlink="http://www.w3.org/1999/xlink" x="0px" y="0px"
	 viewBox="0 0 512 512" style="enable-background:new 0 0 512 512;" xml:space="preserve">
<path d="M316,121.4c-3,0-5-1-8-3c-2-2-3-5-3-8s1-6,3-8c3-2,5-3,8-3s6,1,8,3s3,5,3,8s-1,6-3,8S319,121.4,316,121.4z M196,121.4
	c-3,0-6-1-8-3s-3-5-3-8s1-6,3-8s5-3,8-3s5,1,8,3c2,2,3,5,3,8s-1,6-3,8C201,120.4,199,121.4,196,121.4z M428,174.4c-8,0-15,2-21,8
	s-8,13-8,21v123c0,8,2,15,8,20c6,6,13,9,21,9s15-3,21-9c5-5,8-12,8-20v-123c0-8-3-15-8-21C443,176.4,436,174.4,428,174.4z
	 M125,179.4v190c0,9,3,16,9,23c6,6,13,9,22,9h21v65c0,8,3,15,9,20c6,6,13,9,21,9s15-3,21-9c5-5,8-12,8-20v-65h40v65c0,8,3,15,8,20
	c6,6,13,9,21,9s15-3,21-9c5-5,8-12,8-20l1-65h21c8,0,16-3,22-9c6-7,9-14,9-23v-190H125z M191,63.4c-20,11-37,25-49,44s-18,39-18,62
	h264c0-23-6-43-18-62s-29-33-49-44l20-37c1-3,1-5-1-6c-3-1-5,0-6,2l-21,38c-18-8-37-12-57-12s-39,4-57,12l-21-38c-1-2-3-3-6-2
	c-2,1-2,3-1,6L191,63.4z M55,203.4v123c0,8,3,15,8,20c6,6,13,9,21,9s15-3,21-9c6-5,8-12,8-20v-123c0-8-2-15-8-21s-13-8-21-8
	s-15,2-21,8C58,188.4,55,195.4,55,203.4z"/>
</svg>
