<?xml version="1.0" encoding="utf-8"?>
<!-- Generator: Adobe Illustrator 26.0.2, SVG Export Plug-In . SVG Version: 6.00 Build 0)  -->
<svg version="1.1" id="Layer_1" xmlns="http://www.w3.org/2000/svg" xmlns:xlink="http://www.w3.org/1999/xlink" x="0px" y="0px"
	 viewBox="0 0 512 512" style="enable-background:new 0 0 512 512;" xml:space="preserve">
<path d="M404,329.5c-13-19-20-40-20-64c0-21,6-41,19-59c6-9,17-21,32-33c-10-13-20-22-30-29c-17-12-38-19-60-19c-14,0-30,4-50,10
	c-19,7-32,10-41,10c-6,0-19-3-39-9c-20-5-37-8-51-8c-32,0-60,13-81,41s-32,63-32,107c0,46,14,94,42,143c28,50,57,74,86,74
	c10,0,22-3,38-9c15-7,29-10,40-10c13,0,27,3,43,9c18,7,31,10,40,10c25,0,49-19,74-56c16-24,27-48,35-72
	C432,360.5,417,348.5,404,329.5z M341,27.5c0-1,0-2,0-3c0,0,0-1-1-3c0-1,0-2,0-3c-34,8-58,22-72,42c-14,21-21,45-22,74
	c13-1,23-3,30-5c10-4,20-10,31-21c12-12,20-25,26-39s8-27,8-39C341,29.5,341,28.5,341,27.5z"/>
</svg>
