<?xml version="1.0" encoding="utf-8"?>
<!-- Generator: Adobe Illustrator 26.0.2, SVG Export Plug-In . SVG Version: 6.00 Build 0)  -->
<svg version="1.1" id="Layer_1" xmlns="http://www.w3.org/2000/svg" xmlns:xlink="http://www.w3.org/1999/xlink" x="0px" y="0px"
	 viewBox="0 0 512 512" style="enable-background:new 0 0 512 512;" xml:space="preserve">
<path d="M463,110H334v32h129V110z M212,244c11-5,19-11,24-18c10-12,15-27,15-47c0-19-5-35-15-48c-16-22-43-34-82-34H0l0,318h144
	c16,0,31-1,45-4c13-3,25-8,35-16c9-7,17-15,23-25c10-15,14-32,14-51c0-18-4-34-12-46C241,260,228,250,212,244z M73,152h60
	c15,0,28,2,37,5c12,5,18,15,18,29s-5,23-13,28c-9,6-20,8-34,8H73V152z M173,354c-8,4-18,6-32,6H73v-85h69c14,0,24,2,32,6
	c13,6,20,17,20,34C194,334,187,348,173,354z M492,216c-10-16-24-27-39-34c-16-7-34-11-54-11c-34,0-61,11-82,32s-31,51-31,91
	c0,42,11,72,35,91c23,19,50,28,80,28c37,0,65-11,86-33c13-14,20-28,22-41h-61c-4,6-8,12-12,15c-9,7-20,11-33,11s-24-3-33-9
	c-15-9-23-25-24-48h166c0-20,0-35-2-45C507,245,501,229,492,216z M347,269c2-15,8-27,16-36c9-8,20-13,36-13c14,0,26,4,35,13
	c10,8,15,20,16,36H347z"/>
</svg>
