<?xml version="1.0" encoding="utf-8"?>
<!-- Generator: Adobe Illustrator 26.0.2, SVG Export Plug-In . SVG Version: 6.00 Build 0)  -->
<svg version="1.1" id="Layer_1" xmlns="http://www.w3.org/2000/svg" xmlns:xlink="http://www.w3.org/1999/xlink" x="0px" y="0px"
	 viewBox="0 0 512 512" style="enable-background:new 0 0 512 512;" xml:space="preserve">
<path d="M395,10l0,78c0,6-5,10-11,10l-44,0c-31,0-37,12-37,36v49l78,0c3,0,6,1,8,3s3,5,3,8l0,84c0,6-5,11-11,11l-78,0l0,212
	c0,6-5,11-10,11l-88,0c-5,0-10-5-10-11l0-212l-67,0c-6,0-10-5-10-11l0-84c0-6,4-11,10-11l67,0l0-58C195,49,243-1,318-1l66,0
	C390-1,395,4,395,10z"/>
</svg>
