<?xml version="1.0" encoding="utf-8"?>
<!-- Generator: Adobe Illustrator 26.0.2, SVG Export Plug-In . SVG Version: 6.00 Build 0)  -->
<svg version="1.1" id="Layer_1" xmlns="http://www.w3.org/2000/svg" xmlns:xlink="http://www.w3.org/1999/xlink" x="0px" y="0px"
	 viewBox="0 0 512 512" style="enable-background:new 0 0 512 512;" xml:space="preserve">
<path d="M40.3,141.4c-1-23,4-47,8-71c2-8,5-15,8-23c2-6,8-9,14-8c4,1,7,1,11,3c35,11,67,28,98,47c4,3,10,4,15,3c12,0,24-3,36-4
	c30-1,59-1,89,5c4,0,9,0,13-3c34-21,69-40,108-51c6-1,12,0,14,2c1,1,2,3,2,5c4,15,9,29,12,45c3,18,6,37,4,55c-1,12,3,19,9,27
	c21,27,30,58,31,92c0,29-3,58-12,86c-14,42-40,74-80,95c-32,17-68,24-104,25c-33,1-65,0-98,1c-33,0-65-3-97-13c-31-11-58-27-79-53
	c-31-38-40-82-42-129c-2-35,6-69,27-98C35.3,167.4,40.3,157.4,40.3,141.4z M103.3,415.4c14,12,31,18,49,22c34,8,69,10,105,9
	c34,1,69-1,103-9c25-6,48-16,64-37c25-34,31-99-10-135c-11-9-23-15-37-15c-16-1-31-3-47-3c-39,0-78,2-117,2c-18,1-36-4-54-2
	c-16,0-33,3-47,10c-25,11-38,33-42,58C64.3,354.4,72.3,388.4,103.3,415.4z M129.3,341.4c0-28,17-50,38-50c20,0,37,22,37,50
	c0,27-17,49-37,49C146.3,390.4,129.3,368.4,129.3,341.4z M307.3,341.4c0-28,17-50,38-50c20,0,37,22,37,50c0,27-17,49-37,49
	C324.3,390.4,307.3,368.4,307.3,341.4z"/>
</svg>
