<?xml version="1.0" encoding="utf-8"?>
<!-- Generator: Adobe Illustrator 26.0.2, SVG Export Plug-In . SVG Version: 6.00 Build 0)  -->
<svg version="1.1" id="Layer_1" xmlns="http://www.w3.org/2000/svg" xmlns:xlink="http://www.w3.org/1999/xlink" x="0px" y="0px"
	 viewBox="0 0 512 512" style="enable-background:new 0 0 512 512;" xml:space="preserve">
<path d="M42,187v283h94V187H42z M128,64c-10-9-22-14-38-14s-29,5-39,14S37,85,37,99s4,26,14,35c9,9,22,14,38,14l0,0c16,0,29-5,39-14
	s14-21,14-35S137,73,128,64z M446,212c-20-21-46-32-79-32c-12,0-23,1-33,4c-9,3-18,8-24,13c-7,5-13,10-17,15c-4,4-7,10-11,16l0,0
	v-41h-94l1,13c0,9,0,38,0,85s0,109-1,185h94V312c0-10,1-18,3-23c4-10,10-18,19-25c8-6,18-10,30-10c16,0,28,6,36,17c8,12,11,27,11,47
	v152h94V307C475,266,466,234,446,212z"/>
</svg>
