<?xml version="1.0" encoding="utf-8"?>
<!-- Generator: Adobe Illustrator 26.0.2, SVG Export Plug-In . SVG Version: 6.00 Build 0)  -->
<svg version="1.1" id="Layer_1" xmlns="http://www.w3.org/2000/svg" xmlns:xlink="http://www.w3.org/1999/xlink" x="0px" y="0px"
	 viewBox="0 0 512 512" style="enable-background:new 0 0 512 512;" xml:space="preserve">
<path d="M405.9,187.9l26-26c22-23,22-59,0-82c-11-11-25-17-40-17c-15,0-29,6-40,17l-95,96c-19,19-48,56-21,84c12,12,12,32-1,44
	c-12,13-32,13-44,0c-46-46-38-114,21-173l95-96c23-22,53-35,85-35c32,0,62,13,85,35c23,24,35,55,35,86c0,31-12,62-35,85l-26,26
	c-12,13-32,13-45,0C393.9,219.9,393.9,199.9,405.9,187.9z M38.9,476.9c-49-50-52-119-7-165l32-32c13-13,33-13,45,0c13,12,13,32,0,44
	l-32,33c-23,23-13,55,7,75c10,11,25,17,40,17s29-6,40-17l101-102c46-46,24-68,15-78c-12-12-12-32,0-44c13-13,33-13,45,0
	c21,21,32,45,32,71c0,31-16,64-47,96l-101,102c-23,22-53,35-85,35S60.9,498.9,38.9,476.9z"/>
</svg>
